<?xml version="1.0" encoding="UTF-8"?>
<svg id="Layer_1" xmlns="http://www.w3.org/2000/svg" version="1.1" viewBox="0 0 841.89 595.28">
  <!-- Generator: Adobe Illustrator 30.4.0, SVG Export Plug-In . SVG Version: 2.1.4 Build 226)  -->
  <defs>
    <style>
      .st0 {
        fill: #231f20;
      }
    </style>
  </defs>
  <path class="st0" d="M254.97,153.63c7.82,5.17,15.21,9.54,22.01,14.7,6.46,4.91,8.65,16.43,4.62,24.77-4.65,9.63-10.12,18.87-15.25,28.27-.17.31-.55.51-.94.85,2.38-16.12-6.54-25.36-19.16-32.34-4.4-2.44-4.82-3.21-2.91-7.89,3.72-9.13,7.48-18.24,11.63-28.35M253.11,147.61l-1.85,4.5c-1.24,3.02-2.45,5.95-3.63,8.83-2.78,6.75-5.4,13.13-8.01,19.53-1.06,2.6-1.93,5.15-.94,7.73.93,2.42,3.01,3.72,5.62,5.17,13.81,7.64,18.94,16.09,17.14,28.26l-1.6,10.84,8.21-7.26c.05-.05.11-.09.16-.13.39-.3,1.12-.85,1.64-1.81,1.48-2.72,3.02-5.47,4.51-8.14,3.68-6.57,7.48-13.37,10.82-20.31,4.84-10.03,2.18-23.63-5.81-29.69-4.81-3.66-9.82-6.86-15.12-10.25-2.31-1.48-4.7-3.01-7.1-4.59l-4.06-2.68h0Z"/>
  <path class="st0" d="M368.87,12.38c2.71,1.56,4.01,3.12,3.1,6.3-2.54,8.85-.79,17.19,3.49,25.19,12.06,22.49,30.29,37.84,54.3,46.01,30.87,10.51,61.85,20.67,92.89,30.65,27.39,8.81,54.56,18.04,80.59,30.46,21.67,10.34,34.93,27,38.57,50.52,1.26,8.13.12,16.88-1.29,25.11-1.22,7.16-4.17,14.06-6.73,20.94-1.67,4.48-4.01,8.7-6.58,12.84.45-2.92,1-5.83,1.34-8.77,2.65-22.99-6.57-41.43-22.64-56.82-12.19-11.67-27.64-18.03-43.33-23.13-31.38-10.19-63.04-19.51-94.58-29.19-6.52-2-13.02-4.05-19.53-6.05-1.56-.48-2.55-.78-3.3-.78-1.31,0-1.83.94-3.27,3.49,1.85,1.36,3.66,2.92,5.67,4.15,27.09,16.59,53.02,34.87,77.85,54.64,13.6,10.83,24.34,24.26,31.39,40.36,4.73,10.8,5.1,22.09,3.63,33.57-.34,2.66-.91,5.3-1.08,7.97-.35,5.43-3.02,9.62-6.59,13.44-4.43,4.74-4.37,5.82,1.02,9.63,12.98,9.18,23.34,20.61,30.18,35.05,8.73,18.42,9.91,37.03,1.15,55.83-2.6,5.58-5.4,11.09-7.62,16.82-1.67,4.29-2.56,8.89-3.82,13.35-.4,1.41-.52,3.04-1.33,4.16-4.47,6.17-9.12,12.21-13.7,18.29-1.77-9.76-4.54-18.44-9.22-26.57-5.09-8.86-12.24-15.3-21.74-18.96-24.58-9.46-49.24-18.73-73.81-28.23-14.34-5.55-28.61-11.31-42.83-17.15-1.02-.42-1.91-.61-2.7-.61-2.35,0-3.79,1.68-5.07,3.97-3.64,6.57-7.22,13.18-10.85,19.76-.62,1.12-1.33,2.19-2.38,3.92-.99-5.26-1.59-9.84-2.74-14.27-3.03-11.65-10.51-20.05-20.21-26.71-14.16-9.72-30.22-14.75-46.62-18.96-1.39-.36-2.8-.94-4.2-.94-.03,0-.06,0-.09,0-1.63.03-3.25.64-4.87,1,.5,1.48.6,3.33,1.56,4.39,7.56,8.4,15.21,16.72,22.99,24.93,27.13,28.64,53.62,57.77,74.35,91.64,8.43,13.77,15.03,28.14,17.09,44.22,2.33,18.23,2.7,36.35-4.31,53.92-2.61,6.56-4.48,13.42-6.72,20.14-.24.71-.7,1.35-1.55,2.96-.38-7.47-.51-13.96-1.1-20.4-1.09-12-1.43-24.2-3.92-35.93-4.1-19.27-14.52-35.9-24.99-52.32-12.57-19.71-27.79-37.3-44.08-53.99-23.97-24.56-48.28-48.8-71.86-73.73-11.64-12.31-17.83-27.87-16.29-44.8,1.08-11.93,7.11-22.91,13.37-33.29,1.32-2.18,2.63-4.44,4.39-6.24.89-.91,2.76-.87,4.19-1.26.26,1.47,1.06,3.09.69,4.38-1.36,4.86-3.69,9.52-4.56,14.45-1.48,8.36,1.45,16.02,5.55,24.27,9.21-16.15,18.58-31.31,26.68-47.13,8.03-15.68,14.77-32.02,22.08-48.07.71.14,1.42.29,2.13.43.04,2.19.46,4.45.04,6.55-.65,3.26-1.64,6.49-2.9,9.57-3.8,9.32-2.91,18.28.17,27.77,6.65,20.54,21.94,33.96,37.2,47.59,18.67,16.68,39.52,29.55,62.36,40.11,36.36,16.81,74.32,29.52,111.07,45.28,13.13,5.63,23.94,13.56,32.32,25.05,1.81,2.48,4.22,4.53,7.14,7.61,1.47-8.55.67-15.52-1.14-22.39-4.14-15.74-13.45-28.14-25.19-39.01-20.61-19.09-45.09-31.69-70.62-42.71-21.12-9.12-42.22-18.35-62.88-28.45-26.61-13-45.05-34.73-58.79-60.22-9.29-17.24-9.74-35.68-1.1-53.8,2.19-4.59,4.21-9.26,6.47-13.82.8-1.61,2.07-2.98,3.12-4.45.52.05,1.04.11,1.56.16.17,1.97,1.02,4.19.41,5.88-4.92,13.69-1.98,26.29,4.5,38.65,14.44,27.53,36.41,46.79,64.52,59.5,24.76,11.2,49.57,22.3,74.05,34.07,11.34,5.45,21.95,12.4,32.9,18.66,1.14.65,2.34,1.21,4.31,2.21-.2-3.56-.24-6.52-.54-9.46-1.79-17.15-9.78-31-21.59-43.4-22.19-23.28-49.72-39.23-75.95-57.01-18.35-12.44-36.94-24.56-54.9-37.53-13.04-9.42-24.33-20.76-31.04-35.91-4.38-9.9-6.13-20.39-5.77-30.98.69-20.54,4.38-40.72,9.33-60.65.64-2.56,1.76-4.99,2.75-7.73M310.18,280.11c-2.21-7.95-4.26-15.3-6.37-22.89-3.68,6.72-7.43,13.57-11.44,20.9,6.28.7,12.03,1.34,17.82,1.99M366.73,6.54l-1.62,4.48c-.3.83-.63,1.67-.94,2.47-.71,1.8-1.44,3.67-1.93,5.65-5.82,23.45-8.83,42.98-9.44,61.48-.39,11.67,1.67,22.68,6.11,32.73,6.2,14.01,16.78,26.28,32.35,37.53,13.04,9.42,26.6,18.51,39.71,27.31,5.02,3.37,10.21,6.85,15.29,10.29,5.25,3.56,10.63,7.1,15.84,10.52,20.66,13.58,42.02,27.63,59.46,45.94,12.43,13.04,18.95,26.09,20.51,41.06.08.72.13,1.45.18,2.2-2.77-1.61-5.55-3.27-8.26-4.89-7.36-4.4-14.97-8.94-22.88-12.75-21.49-10.33-43.57-20.3-64.92-29.95l-9.22-4.17c-28.54-12.91-49.03-31.79-62.63-57.71-6.89-13.14-8.25-24.4-4.28-35.44.78-2.18.38-4.33.05-6.05-.11-.57-.21-1.1-.25-1.53l-.29-3.3-3.29-.33-.63-.06-.94-.1-2.31-.24-1.35,1.89c-.28.4-.6.81-.94,1.24-.84,1.08-1.79,2.3-2.51,3.76-1.34,2.71-2.61,5.48-3.84,8.16-.86,1.88-1.75,3.83-2.65,5.71-9.14,19.17-8.73,39.02,1.19,57.42,15.92,29.53,35.73,49.79,60.56,61.92,21.14,10.33,42.74,19.75,63.05,28.52,22.39,9.67,48.15,22.21,69.48,41.97,12.89,11.94,20.52,23.72,24.04,37.1,1.15,4.39,1.74,8.34,1.78,12.28-.24-.29-.46-.57-.68-.87-8.42-11.56-19.53-20.18-33.97-26.37-15.74-6.75-31.94-13.03-47.61-19.11-20.96-8.13-42.62-16.54-63.36-26.12-23.99-11.09-44.07-24-61.37-39.46l-.73-.65c-14.97-13.37-29.12-26.01-35.33-45.19-3.21-9.9-3.29-17.62-.27-25.03,1.37-3.36,2.42-6.83,3.11-10.3.4-1.98.26-3.88.14-5.57-.05-.65-.09-1.26-.1-1.84l-.06-3.21-3.15-.64-1.07-.22-1.07-.22-3.11-.63-1.32,2.89c-2.24,4.91-4.45,9.92-6.6,14.77-4.85,10.98-9.87,22.33-15.4,33.13-5.56,10.86-11.64,21.26-18.07,32.27-1.52,2.6-3.06,5.24-4.61,7.91-2.03-5.23-2.91-9.91-2.04-14.8.46-2.6,1.42-5.21,2.43-7.97.72-1.96,1.46-3.98,2.05-6.09.55-1.97.03-3.8-.34-5.13-.11-.39-.22-.76-.26-1.03l-.77-4.3-4.22,1.15c-.24.07-.63.13-1.01.19-1.46.24-3.46.56-4.99,2.13-1.97,2.02-3.43,4.43-4.71,6.57l-.24.4c-6.41,10.62-12.76,22.07-13.93,35-1.57,17.38,4.6,34.39,17.37,47.9,16.13,17.05,32.86,34.05,49.03,50.48,7.51,7.63,15.27,15.51,22.87,23.29,18.79,19.25,32.63,36.2,43.57,53.35,9.56,15,20.41,31.99,24.45,51,1.79,8.43,2.46,17.38,3.1,26.05.23,3.08.47,6.27.75,9.41.39,4.28.57,8.66.77,13.3.09,2.23.19,4.54.32,6.95l.74,14.46,6.78-12.79c.3-.56.54-.99.75-1.35.43-.75.8-1.41,1.07-2.22.76-2.27,1.48-4.58,2.18-6.81,1.36-4.36,2.77-8.88,4.46-13.11,7.81-19.61,6.69-39.27,4.56-55.91-1.87-14.64-7.48-29.19-17.65-45.8-21.18-34.61-48.6-64.57-74.86-92.3-6.87-7.26-13.96-14.93-21.63-23.43.33.08.68.19,1.04.3.44.13.87.26,1.31.37,17.81,4.57,32.33,9.45,45.35,18.39,10.04,6.89,16.12,14.88,18.6,24.41.74,2.83,1.25,5.84,1.8,9.03.27,1.59.55,3.24.88,4.97l1.93,10.25,5.42-8.9c.36-.58.67-1.09.96-1.55.56-.91,1.05-1.69,1.5-2.52,1.48-2.68,2.95-5.37,4.42-8.06,2.1-3.84,4.27-7.8,6.42-11.68.66-1.2,1.25-1.91,1.57-1.91.16,0,.53.04,1.18.31,16.58,6.81,30.21,12.27,42.91,17.18,13.41,5.18,27.06,10.38,40.26,15.41,11,4.19,22.38,8.52,33.55,12.82,8.48,3.26,14.93,8.89,19.71,17.22,4.15,7.21,6.92,15.24,8.75,25.29l1.63,8.99,5.5-7.3c1.17-1.55,2.34-3.1,3.51-4.65,3.38-4.46,6.88-9.08,10.23-13.71,1.07-1.48,1.43-3.1,1.71-4.41.08-.37.16-.72.24-1.01.41-1.47.79-2.96,1.15-4.39.77-3.03,1.49-5.89,2.54-8.59,1.6-4.12,3.57-8.26,5.48-12.26.69-1.44,1.37-2.88,2.04-4.32,8.85-19,8.46-38.93-1.17-59.23-6.78-14.3-17.37-26.61-31.49-36.6-1.09-.77-1.75-1.29-2.15-1.64.32-.41.85-1.04,1.74-2,3.06-3.27,7.18-8.48,7.65-15.92.1-1.5.34-3.04.6-4.67.16-.99.32-2,.45-3.04,1.81-14.1.56-25.44-3.94-35.68-7.13-16.26-18.08-30.36-32.56-41.88-24.18-19.25-49.28-36.97-74.66-52.71,1.25.39,2.5.78,3.75,1.17,3.28,1.02,6.55,2.04,9.83,3.05,9.38,2.88,18.92,5.77,28.14,8.57,21.81,6.61,44.35,13.45,66.37,20.6,13.92,4.52,29.77,10.69,41.79,22.21,16.72,16.02,23.73,33.51,21.44,53.48-.22,1.91-.53,3.8-.86,5.8-.16.94-.31,1.88-.46,2.82l-3.02,19.51,10.38-16.8c2.2-3.56,4.97-8.31,6.92-13.55.43-1.15.87-2.31,1.31-3.47,2.23-5.83,4.53-11.86,5.61-18.2,1.47-8.58,2.64-17.72,1.3-26.39-3.77-24.39-17.5-42.4-40.8-53.52-27.18-12.97-56.11-22.63-81.09-30.66-34.7-11.16-65.06-21.18-92.83-30.63-23.06-7.85-40.58-22.7-52.06-44.12-4.18-7.8-5.22-15.06-3.17-22.19,1.98-6.89-3.23-9.89-4.95-10.87l-4.13-2.37h0ZM298.74,274.81l3.85-7.04,2.15,7.71-3.4-.38-2.6-.29h0Z"/>
</svg>